<?xml version="1.0" encoding="utf-8"?>
<?xml-stylesheet type="text/xsl" href="rss1.xsl"?>
<rss version="2.0" xmlns:atom="http://www.w3.org/2005/Atom" xmlns:content="http://purl.org/rss/1.0/modules/content/" xmlns:dc="http://purl.org/dc/elements/1.1/" xmlns:media="http://search.yahoo.com/mrss/">
<channel>
 <title>Getty</title>
 <link>http://www.gettyimg.com/</link>
 <atom:link href="http://www.gettyimg.com/" rel="self" type="application/rss+xml" />

 
                <item>
                <title><![CDATA[【Albums (lossless)】FLAC - Bryan Adams – MTV Unplugged (1997) JAPAN + BOOKLET [FLAC CD] 14 TRACKS]]></title>
                <link><![CDATA[https://sharemania.us/threads/bryan-adams-%E2%80%93-mtv-unplugged-1997-japan-booklet-flac-cd-14-tracks.240062/]]></link>
                <description><![CDATA[<article>
<blockquote class="messageText SelectQuoteContainer ugc baseHtml">
<div style="text-align: center"><img src="https://i.discogs.com/0AkLAu1Uzdjno1ab12Atqd2w658akY9N18N0k8XkUNA/rs:fit/g:sm/q:90/h:527/w:600/czM6Ly9kaXNjb2dz/LWRhdGFiYXNlLWlt/YWdlcy9SLTY4OTY0/NDItMTY3ODQ0MTg2/My01MzYxLmpwZWc.jpeg" class="bbCodeImage LbImage" alt="[​IMG]" data-url="https://i.discogs.com/0AkLAu1Uzdjno1ab12Atqd2w658akY9N18N0k8XkUNA/rs:fit/g:sm/q:90/h:527/w:600/czM6Ly9kaXNjb2dz/LWRhdGFiYXNlLWlt/YWdlcy9SLTY4OTY0/NDItMTY3ODQ0MTg2/My01MzYxLmpwZWc.jpeg" style=""> <br>
<img src="https://i.discogs.com/Bz-g-n1700QEbp3BqNk0GxgDr0BAQTc6YIOFdNFysq4/rs:fit/g:sm/q:90/h:504/w:600/czM6Ly9kaXNjb2dz/LWRhdGFiYXNlLWlt/YWdlcy9SLTY4OTY0/NDItMTY3ODQ0MTk3/OC00MzEyLmpwZWc.jpeg" class="bbCodeImage LbImage" alt="[​IMG]" data-url="https://i.discogs.com/Bz-g-n1700QEbp3BqNk0GxgDr0BAQTc6YIOFdNFysq4/rs:fit/g:sm/q:90/h:504/w:600/czM6Ly9kaXNjb2dz/LWRhdGFiYXNlLWlt/YWdlcy9SLTY4OTY0/NDItMTY3ODQ0MTk3/OC00MzEyLmpwZWc.jpeg" style=""> <br>
<br>
​</div>
<div class="ToggleTriggerAnchor bbCodeSpoilerContainer">
<button type="button" class="button bbCodeSpoilerButton ToggleTrigger Tooltip JsOnly" data-target="> .SpoilerTarget"><span>Spoiler: <span class="SpoilerTitle">tracklist</span></span></button>
<div class="SpoilerTarget bbCodeSpoilerText">1 Summer Of '69 4:02<br>
2 Back To You 4:30<br>
3 Cuts Like A Knife 5:04<br>
4 I'm Ready 4:29<br>
5 Fits Ya Good 3:02<br>
6 When You Love Someone 3:41<br>
7 18 Til I Die 3:31<br>
8 I Think About You 2:36<br>
9 If Ya Wanna Be Bad - Ya Gotta Be Good / Let's Make A Night To Remember 4:35<br>
10 The Only Thing That Looks Good On Me Is You 4:34<br>
11 A Little Love 3:23<br>
12 Can't Stop This Thing We Started / It Ain't A Party...If You Can't Come 'round 4:37<br>
13 Heaven 4:30<br>
14 I'll Always Be Right There 4:28</div>
</div><div style="text-align: center"><br>
<br>
​</div>
<div class="bbCodeBlock bbCodeCode">
<div class="type">Code:</div>
<pre>Exact Audio Copy V1.0 beta 3 from 29. August 2011

EAC extraction logfile from 19. October 2014, 21:04

Bryan Adams / MTV Unplugged

Used drive  : SlimtypeDVD A  DS8A5SH   Adapter: 0  ID: 1

Read mode               : Secure
Utilize accurate stream : Yes
Defeat audio cache      : Yes
Make use of C2 pointers : No

Read offset correction                      : 6
Overread into Lead-In and Lead-Out          : No
Fill up missing offset samples with silence : Yes
Delete leading and trailing silent blocks   : No
Null samples used in CRC calculations       : Yes
Used interface                              : Native Win32 interface for Win NT &amp; 2000

Used output format              : User Defined Encoder
Selected bitrate                : 320 kBit/s
Quality                         : High
Add ID3 tag                     : No
Command line compressor         : C:\Program Files (x86)\Exact Audio Copy\Flac\flac.exe
Additional command line options : -V -8 -T "Date=%year%" -T "Genre=%genre%" %source%


TOC of the extracted CD

     Track |   Start  |  Length  | Start sector | End sector
    ---------------------------------------------------------
        1  |  0:00.37 |  4:01.57 |        37    |    18168   
        2  |  4:02.19 |  4:30.28 |     18169    |    38446   
        3  |  8:32.47 |  5:03.40 |     38447    |    61211   
        4  | 13:36.12 |  4:28.67 |     61212    |    81378   
        5  | 18:05.04 |  3:01.70 |     81379    |    95023   
        6  | 21:06.74 |  3:41.35 |     95024    |   111633   
        7  | 24:48.34 |  3:30.70 |    111634    |   127453   
        8  | 28:19.29 |  2:36.18 |    127454    |   139171   
        9  | 30:55.47 |  4:35.00 |    139172    |   159796   
       10  | 35:30.47 |  4:34.17 |    159797    |   180363   
       11  | 40:04.64 |  3:23.30 |    180364    |   195618   
       12  | 43:28.19 |  4:37.03 |    195619    |   216396   
       13  | 48:05.22 |  4:30.37 |    216397    |   236683   
       14  | 52:35.59 |  4:27.48 |    236684    |   256756   


Range status and errors

Selected range

     Filename D:\My Music\Bryan Adams - 1997 MTV Unplugged\Bryan Adams - MTV Unplugged.wav

     Peak level 100.0 %
     Extraction speed 2.9 X
     Range quality 100.0 %
     Test CRC AB2CFDAB
     Copy CRC AB2CFDAB
     Copy OK

No errors occurred

 
AccurateRip summary
 
Track  1  accurately ripped (confidence 6)  [B95A18BE]  (AR v2)
Track  2  accurately ripped (confidence 6)  [6073B2F9]  (AR v2)
Track  3  accurately ripped (confidence 6)  [C1AED204]  (AR v2)
Track  4  accurately ripped (confidence 6)  [42DC8475]  (AR v2)
Track  5  accurately ripped (confidence 6)  [D35F6AFE]  (AR v2)
Track  6  accurately ripped (confidence 6)  [F876C5D9]  (AR v2)
Track  7  accurately ripped (confidence 6)  [A19BFFCB]  (AR v2)
Track  8  accurately ripped (confidence 6)  [F9F696E9]  (AR v2)
Track  9  accurately ripped (confidence 6)  [E28FB898]  (AR v2)
Track 10  accurately ripped (confidence 6)  [B053C3BF]  (AR v2)
Track 11  accurately ripped (confidence 6)  [E4996554]  (AR v2)
Track 12  accurately ripped (confidence 5)  [8B08C74A]  (AR v2)
Track 13  accurately ripped (confidence 6)  [CD3BCD77]  (AR v2)
Track 14  accurately ripped (confidence 6)  [1C88299D]  (AR v2)
 
All tracks accurately ripped

End of status report

==== Log checksum 7132F64ACCAA5ED13CEA0767B67BC0D248367D5A0787C124B6E9C3CC07445CC8 ====
</pre>
</div><br>
<div style="text-align: center"><a href="https://www.discogs.com/es/release/6896442-Bryan-Adams-MTV-Unplugged" target="_blank" class="externalLink" rel="nofollow">https://www.discogs.com/es/release/6896442-Bryan-Adams-MTV-Unplugged</a><br>
<br>
<div class="bbCodeBlock bbCodeVfcHH HiddenContent">
<div class="attribution type">Hidden Content:</div>
<blockquote>You must reply before you can see the hidden data contained here.</blockquote>
</div></div>
<div class="messageTextEndMarker">&nbsp;</div>
</blockquote>
</article>]]></description>
                <author><![CDATA[cnature]]></author>
                </item>

                
                <item>
                <title><![CDATA[【Unreleased/Unofficial (lossless)】PACK - Katy Perry - Unreleased All Remastered 2001-2020]]></title>
                <link><![CDATA[https://sharemania.us/threads/katy-perry-unreleased-all-remastered-2001-2020.240063/]]></link>
                <description><![CDATA[<article>
<blockquote class="messageText SelectQuoteContainer ugc baseHtml">
Thankyou very much
<div class="messageTextEndMarker">&nbsp;</div>
</blockquote>
</article>]]></description>
                <author><![CDATA[Isaiasdelray]]></author>
                </item>

                </channel></rss>